<svg width="48" height="48" viewBox="0 0 48 48" fill="none" xmlns="http://www.w3.org/2000/svg">
  <defs>
    <linearGradient id="koopilot-logo-grad" x1="0" y1="0" x2="48" y2="48" gradientUnits="userSpaceOnUse">
      <stop offset="0%" stop-color="#2563EB" />
      <stop offset="55%" stop-color="#4F46E5" />
      <stop offset="100%" stop-color="#0EA5E9" />
    </linearGradient>
    <linearGradient id="koopilot-logo-spark" x1="0" y1="0" x2="0" y2="1">
      <stop offset="0%" stop-color="#FDE68A" />
      <stop offset="100%" stop-color="#F59E0B" />
    </linearGradient>
  </defs>
  <rect x="2" y="2" width="44" height="44" rx="12" fill="url(#koopilot-logo-grad)" />
  <rect x="2" y="2" width="44" height="44" rx="12" fill="white" fill-opacity="0.06" />
  <rect x="11" y="12" width="4.5" height="24" rx="1.2" fill="white" />
  <path d="M15.5 24 L27.5 14" stroke="white" stroke-width="4.2" stroke-linecap="round" />
  <path d="M15.5 24 L27.5 34" stroke="white" stroke-width="4.2" stroke-linecap="round" />
  <path d="M28 14 L35 24 M28 34 L35 24" stroke="white" stroke-opacity="0.55" stroke-width="1.6" stroke-linecap="round" />
  <circle cx="28" cy="14" r="2.6" fill="white" />
  <circle cx="35" cy="24" r="3.2" fill="white" />
  <circle cx="28" cy="34" r="2.6" fill="white" />
  <path d="M22 5.5 L23 8.5 L26 9.5 L23 10.5 L22 13.5 L21 10.5 L18 9.5 L21 8.5 Z" fill="url(#koopilot-logo-spark)" />
</svg>
